PathFileType	4	(X/Y/Z)	Patient4_TMGait_0pt4_03_right_38.trc.trc
DataRate	CameraRate	NumFrames	NumMarkers	Units	OrigDataRate	OrigDataStartFrame	OrigNumFrames
75.675675675676	75.675675675676	4	33	mm	75.675675675676	18	       141
Frame#	Time	Sacral			L.Shoulder			Chest			R.Shoulder			Neck			R.ASIS			L.ASIS			R.Thigh.Superior			R.Thigh.Lateral			R.Thigh.Inferior			R.Patella			L.Thigh.Superior			L.Thigh.Lateral			L.Thigh.Inferior			L.Patella			L.Shank.Superior			L.Shank.Lateral			L.Shank.Inferior			R.Shank.Superior			R.Shank.Lateral			R.Shank.Inferior			R.Heel			R.Midfoot.Superior			R.Midfoot.Lateral			R.Toe			L.Heel			L.Midfoot.Lateral			L.Midfoot.Superior			L.Toe			L.Elbow			L.Wrist			R.Elbow			R.Wrist			
		X1	Y1	Z1	X2	Y2	Z2	X3	Y3	Z3	X4	Y4	Z4	X5	Y5	Z5	X6	Y6	Z6	X7	Y7	Z7	X8	Y8	Z8	X9	Y9	Z9	X10	Y10	Z10	X11	Y11	Z11	X12	Y12	Z12	X13	Y13	Z13	X14	Y14	Z14	X15	Y15	Z15	X16	Y16	Z16	X17	Y17	Z17	X18	Y18	Z18	X19	Y19	Z19	X20	Y20	Z20	X21	Y21	Z21	X22	Y22	Z22	X23	Y23	Z23	X24	Y24	Z24	X25	Y25	Z25	X26	Y26	Z26	X27	Y27	Z27	X28	Y28	Z28	X29	Y29	Z29	X30	Y30	Z30	X31	Y31	Z31	X32	Y32	Z32	X33	Y33	Z33	

18	49.954642857143	865.157581724058	1007.959328810128	420.407014519838	1065.494758467779	1435.341759960026	247.931591205962	1145.963583672953	1368.158630240508	421.173067288170	1041.890361144356	1441.676977470437	583.414193472919	1025.819343173439	1498.601935525788	402.522388964187	1084.662078739815	950.913923122594	560.864873050084	1092.205469113452	961.594830299306	284.195098793602	1151.398879036586	763.862085982932	537.592987121228	1099.198871159006	650.588876542511	615.644686361720	1181.706074057801	602.217946671553	534.995797979152	1209.618829420554	519.938735265620	554.963628172572	1105.479013629600	737.569972597013	315.122194463441	997.708622499265	636.715090238081	246.412523510057	1063.144215691769	547.747964843459	311.378985157602	1051.175215964519	481.838991843323	319.537322012699	1021.658402826763	412.803949719975	310.928097782999	924.291369742776	303.935176672391	262.145616096802	969.204025866653	189.774843323304	332.266546770729	1188.745315070052	433.908022106761	570.643875642084	1132.337170842043	327.737833880624	643.936662999481	1192.569897790742	234.381153365968	593.266482082713	1088.872337048796	50.545023495533	580.499519288952	1256.385423422958	119.734647911727	609.317884232096	1176.605974957172	48.890389185371	650.254839707897	1380.410519880600	79.545913234397	631.293970222434	837.434965713192	38.997075500107	383.381683128507	904.621546756989	34.953397270703	297.114681917713	990.288999874149	95.487876772463	319.213240207006	1116.381557428774	41.950427042535	279.796188627046	1114.257066524057	1097.640712422385	108.803555666983	1362.479914869424	1031.070702800436	141.584191704466	947.426171896138	1106.342054132226	699.408759267070	962.093591655211	845.903500310171	717.329990217982	
19	49.967857142857	866.629570983838	1006.952899783911	422.353161369328	1065.994209356042	1434.695605138672	250.174190000533	1146.706752425371	1367.457876776866	423.269699022426	1042.748410968145	1440.880305551383	585.608076008803	1026.204740416074	1497.748046710925	404.741112377283	1086.181490272096	949.620199681323	562.627246157903	1093.476699764019	960.968317891891	285.933108032528	1151.352715040563	761.416640287175	539.480721619669	1097.351216674234	648.058426517974	616.520838676788	1179.881832948202	599.786292070127	536.011013434163	1206.786747419022	518.431778366639	554.781936953466	1105.240287584501	736.422073727929	316.338434219005	996.509394729875	636.330138866591	247.503217903556	1061.114076912514	546.797392327952	312.391586495987	1048.671575791382	480.928247554330	320.299510982138	1018.600461642095	412.169251189972	311.625790408194	920.400802881295	304.082325102677	262.584815613985	964.509356733883	189.409229234609	332.439003481609	1187.666063206426	432.078659255783	570.159383905753	1132.802313895203	324.493820214461	642.562851769917	1194.673115921452	232.448879980665	591.364162372444	1093.579179991160	47.999979393322	577.635049452050	1260.753394724974	117.735589424617	606.314867009839	1181.449038864039	46.494262988749	647.098547177407	1385.029578795398	78.041927792479	627.462547646167	832.104133381189	38.987614975560	383.344134708200	899.269138165478	34.924277352030	297.095408680295	984.955969753646	95.429851214370	319.230413869986	1111.031068195288	41.854078005103	279.794223136662	1115.861971245493	1097.659446061800	110.370395029021	1365.597452292856	1038.687415103546	143.127517687816	941.585068819709	1108.040895870548	701.054990343262	949.115093589150	847.448829620471	718.521924995985	
20	49.981071428571	868.292764998687	1005.764021616166	424.689987722010	1066.248372420995	1433.931863114801	252.568395744922	1147.402380802458	1366.770457015767	425.477066131283	1043.618391044986	1440.048932309046	587.983030015671	1026.470816195307	1496.796731271440	407.133492679632	1088.036609262707	948.241862124238	564.554956095076	1094.850806717436	960.275968754018	287.869705362000	1151.979299233961	759.116896166555	541.452968512917	1096.078624983861	645.447271020503	617.129219481362	1178.897613765698	597.541527702996	536.947068531608	1204.553230287525	516.704202494689	554.491806435683	1105.249121788640	735.224197022575	317.691031773741	995.552874648758	635.887855511707	248.808098919481	1059.397613121739	545.790529547768	313.537084025513	1046.522006608373	479.905329888618	321.211396533127	1015.814297895713	411.457935157834	312.460355226486	916.675679038690	304.257837692979	263.174224450368	959.900499651178	189.001678983637	332.678046518933	1186.564472833438	429.875275917656	569.505296547406	1132.223185467590	321.356418300816	640.740777019757	1195.072320417550	230.209118459184	589.192857649676	1095.130662450589	46.208520486985	574.269226505874	1262.265768371193	115.183056073130	603.102645473438	1182.890314340736	44.381826246520	643.712356081328	1386.451002992675	75.247772346851	623.927527385465	826.771513766113	38.960269236699	383.310788645192	893.926191471461	34.896097325447	297.090037064030	979.627554357873	95.374628894287	319.270796944922	1105.686866937950	41.738055020599	279.787964969640	1117.104591504367	1097.460718156951	112.185000076439	1368.010366550694	1045.270075758429	144.653680165365	936.231588417707	1109.735178022563	702.857438694101	937.682692483194	849.114287162139	719.378060770395	
21	49.994285714286	870.119037886548	1004.422669390821	427.380422568752	1066.277444440555	1433.059854686829	255.108868373656	1148.051411895303	1366.115501630706	427.802921021726	1044.478200559949	1439.194010101451	590.539158972492	1026.627929135406	1495.768562585118	409.694214891427	1090.201940817658	946.810549349908	566.647627308948	1096.335337478927	959.538835427883	290.000523380562	1153.262600348361	756.973587708528	543.490066570364	1095.383086622421	642.827647104249	617.494808648672	1178.729689733536	595.504510238935	537.804073192331	1202.940946841359	514.784060421732	554.097003251607	1105.495400453423	733.986891020771	319.157088997773	994.815549037305	635.409343204753	250.323661843250	1057.980592407925	544.739307761732	314.795467720155	1044.723131188314	478.778976699222	322.261937153805	1013.294278487519	410.683460664601	313.424118576922	913.109653533691	304.476205643154	263.910936399978	955.375183354976	188.568449573148	332.981885941456	1185.524767604657	427.363602231968	568.716518862149	1130.854560232131	318.332617132828	638.655312648221	1194.034907529183	227.674243011916	586.871279073216	1093.924613914458	44.965281147908	570.692724574236	1261.271443745609	112.208381115655	599.854548569494	1181.394231220292	42.527961649539	640.345376848018	1385.139913160711	71.499677145870	620.814237836422	821.436503336392	38.928091715858	383.278065966716	888.596455654042	34.873918983755	297.098181698097	974.310457178559	95.327372913055	319.331295708757	1100.354618649142	41.598985467308	279.776343235015	1117.959293762198	1097.026985006370	114.256632280516	1369.756970156466	1050.755444231592	146.168915864576	931.439087734575	1111.343945925392	704.782453912534	927.796100556579	850.741189536008	720.012362902441	
